<svg xmlns="http://www.w3.org/2000/svg" fill="none" viewBox="0 0 818 285">
  <path fill="#f9fafb" d="m142.5 0 123.409 71.25v142.5L142.5 285 19.091 213.75V71.25z"/>
  <path stroke="#000" stroke-width="16" d="M246.65 82.368v120.263L142.5 262.763 38.35 202.631V82.368L142.5 22.236z"/>
  <path fill="#ff6467" d="M137 138V59h11v79z"/>
  <circle cx="142.269" cy="142.269" r="13.85" fill="#000"/>
  <path fill="#000" d="M142.269 138.114h61.864v9.695h-61.864z"/>
  <mask id="a" width="520" height="104" x="297.75" y="91.5" fill="#000" maskUnits="userSpaceOnUse">
    <path fill="#fff" d="M297.75 91.5h520v104h-520z"/>
    <path d="M328.812 189.25q-6.812 0-12.562-3.5-5.687-3.5-9.125-9.312-3.375-5.875-3.375-12.876v-5.874q0-.688.625-.688h14.375q.5 0 .5.688v5.874q0 4.188 2.812 7.25 2.814 3 6.75 3 4 0 6.813-3.062 2.813-3.125 2.813-7.188 0-4.687-6.126-8.187a48 48 0 0 0-2.624-1.5 103 103 0 0 0-3.75-2.125q-2.189-1.187-4.25-2.312a223 223 0 0 0-4-2.25q-7-4.125-10.438-10.313-3.375-6.25-3.375-14 0-7.125 3.5-12.875 3.5-5.688 9.125-9 5.688-3.375 12.312-3.375 6.813 0 12.5 3.375 5.688 3.438 9.063 9.125 3.438 5.688 3.437 12.75v10.5q0 .5-.5.5h-14.374q-.5 0-.5-.5l-.126-10.5q0-4.5-2.812-7.313-2.812-2.811-6.688-2.812-3.936 0-6.75 3-2.812 3-2.812 7.125 0 4.188 1.75 7 1.813 2.813 6.562 5.375.501.25 2.313 1.25t4 2.25q2.25 1.188 4.063 2.188 1.812.937 2.187 1.124 6.375 3.564 10.063 8.75 3.75 5.189 3.75 12.75 0 7.313-3.376 13.126-3.437 5.811-9.124 9.187t-12.626 3.375M386.375 189.25q-6.937 0-12.687-3.5-5.688-3.5-9.063-9.375-3.312-5.937-3.313-13.187l.126-39.938q0-7.125 3.25-12.875 3.249-5.812 8.937-9.313 5.75-3.561 12.75-3.562 7.125 0 12.687 3.438 5.626 3.437 8.938 9.312 3.375 5.812 3.375 13v5.875q0 .5-.5.5H396.5q-.5 0-.5-.5v-5.875q0-4.25-2.75-7.312t-6.875-3.063q-4.563 0-7 3.125t-2.437 7.25v39.938q0 4.686 2.75 7.687 2.75 2.937 6.687 2.937 4.125 0 6.875-3.25 2.75-3.312 2.75-7.374v-5.938q0-.5.5-.5H411q.5 0 .5.5v5.938q0 7.187-3.375 13.124-3.438 5.875-9.063 9.438-5.625 3.5-12.687 3.5M435.812 188h-14.5q-.5 0-.5-.625l.126-87.937q0-.5.624-.5h14.25q.626 0 .626.5l-.126 34.812H455.5V99.438q0-.5.5-.5h14.25q.625 0 .625.5l.25 87.937q0 .625-.625.625h-14.375q-.625 0-.625-.625V149.75h-19.188v37.625q0 .625-.5.625M523.438 188h-41.376q-.5 0-.5-.625l.126-87.937q0-.5.5-.5h41.124q.5 0 .5.624v14.313q0 .5-.5.5h-26.25v20h26.25q.5 0 .5.5l.126 14.5q0 .5-.5.5h-26.376v22.375h26.376q.5 0 .5.625V187.5q0 .5-.5.5M558.875 187.875l-22.937.125q-.626 0-.626-.625l.25-87.937q0-.5.5-.5L560 98.812q7.125-.186 12.875 3.25 5.812 3.438 9.25 9.313 3.5 5.813 3.5 12.875V161q0 7.375-3.563 13.5-3.624 6.063-9.624 9.688-6 3.562-13.563 3.687m1.125-73.75-8.938.125-.124 58h7.937q4.75 0 8-3.312 3.25-3.313 3.25-7.938v-36.875q0-4.063-3-7.063-3-3.062-7.125-2.937M619.25 189.25q-6.75 0-12.5-3.5t-9.188-9.375q-3.375-5.937-3.374-12.937l.25-64q0-.5.5-.5h14.374q.5 0 .5.5v64q0 4.312 2.75 7.374 2.75 3 6.688 3 4.125 0 6.875-3 2.75-3.062 2.75-7.374v-64q0-.5.5-.5h14.375q.5 0 .5.5l.25 64q0 7.062-3.375 13-3.437 5.874-9.125 9.374-5.688 3.438-12.75 3.438M696.438 188h-41.376q-.5 0-.5-.625l.126-87.812q0-.626.624-.626h14.25q.626 0 .626.626l-.126 72.687h26.376q.624 0 .624.625v14.5q0 .625-.624.625M747.312 188h-41.374q-.5 0-.5-.625l.124-87.937q0-.5.5-.5h41.126q.5 0 .5.624v14.313q0 .5-.5.5h-26.25v20h26.25q.5 0 .5.5l.124 14.5q0 .5-.5.5h-26.374v22.375h26.374q.5 0 .5.625V187.5q0 .5-.5.5M774.188 188h-14.5q-.5 0-.5-.625l.25-87.937q0-.5.5-.5h25.874q6.939 0 12.75 3.374 5.814 3.375 9.25 9.063 3.5 5.688 3.5 12.875 0 4.687-1.437 8.5t-3.375 6.438q-1.875 2.625-3.438 3.874Q810 150.75 810 161.125l.125 26.25q0 .625-.625.625H795q-.5 0-.5-.375v-26.5q0-4.625-3.25-8t-8-3.375h-8.438l-.124 37.625q0 .625-.5.625m11.624-73.75h-11v20.125h11q3.939 0 7-2.937 3.126-2.939 3.126-7.188 0-4.062-3-7-3-3-7.126-3"/>
  </mask>
  <path fill="#364153" d="M328.812 189.25q-6.812 0-12.562-3.5-5.687-3.5-9.125-9.312-3.375-5.875-3.375-12.876v-5.874q0-.688.625-.688h14.375q.5 0 .5.688v5.874q0 4.188 2.812 7.25 2.814 3 6.75 3 4 0 6.813-3.062 2.813-3.125 2.813-7.188 0-4.687-6.126-8.187a48 48 0 0 0-2.624-1.5 103 103 0 0 0-3.75-2.125q-2.189-1.187-4.25-2.312a223 223 0 0 0-4-2.25q-7-4.125-10.438-10.313-3.375-6.25-3.375-14 0-7.125 3.5-12.875 3.5-5.688 9.125-9 5.688-3.375 12.312-3.375 6.813 0 12.5 3.375 5.688 3.438 9.063 9.125 3.438 5.688 3.437 12.75v10.5q0 .5-.5.5h-14.374q-.5 0-.5-.5l-.126-10.5q0-4.5-2.812-7.313-2.812-2.811-6.688-2.812-3.936 0-6.75 3-2.812 3-2.812 7.125 0 4.188 1.75 7 1.813 2.813 6.562 5.375.501.25 2.313 1.25t4 2.25q2.25 1.188 4.063 2.188 1.812.937 2.187 1.124 6.375 3.564 10.063 8.75 3.75 5.189 3.75 12.75 0 7.313-3.376 13.126-3.437 5.811-9.124 9.187t-12.626 3.375M386.375 189.25q-6.937 0-12.687-3.5-5.688-3.5-9.063-9.375-3.312-5.937-3.313-13.187l.126-39.938q0-7.125 3.25-12.875 3.249-5.812 8.937-9.313 5.75-3.561 12.75-3.562 7.125 0 12.687 3.438 5.626 3.437 8.938 9.312 3.375 5.812 3.375 13v5.875q0 .5-.5.5H396.5q-.5 0-.5-.5v-5.875q0-4.25-2.75-7.312t-6.875-3.063q-4.563 0-7 3.125t-2.437 7.25v39.938q0 4.686 2.75 7.687 2.75 2.937 6.687 2.937 4.125 0 6.875-3.25 2.75-3.312 2.75-7.374v-5.938q0-.5.5-.5H411q.5 0 .5.5v5.938q0 7.187-3.375 13.124-3.438 5.875-9.063 9.438-5.625 3.5-12.687 3.5M435.812 188h-14.5q-.5 0-.5-.625l.126-87.937q0-.5.624-.5h14.25q.626 0 .626.5l-.126 34.812H455.5V99.438q0-.5.5-.5h14.25q.625 0 .625.5l.25 87.937q0 .625-.625.625h-14.375q-.625 0-.625-.625V149.75h-19.188v37.625q0 .625-.5.625M523.438 188h-41.376q-.5 0-.5-.625l.126-87.937q0-.5.5-.5h41.124q.5 0 .5.624v14.313q0 .5-.5.5h-26.25v20h26.25q.5 0 .5.5l.126 14.5q0 .5-.5.5h-26.376v22.375h26.376q.5 0 .5.625V187.5q0 .5-.5.5M558.875 187.875l-22.937.125q-.626 0-.626-.625l.25-87.937q0-.5.5-.5L560 98.812q7.125-.186 12.875 3.25 5.812 3.438 9.25 9.313 3.5 5.813 3.5 12.875V161q0 7.375-3.563 13.5-3.624 6.063-9.624 9.688-6 3.562-13.563 3.687m1.125-73.75-8.938.125-.124 58h7.937q4.75 0 8-3.312 3.25-3.313 3.25-7.938v-36.875q0-4.063-3-7.063-3-3.062-7.125-2.937M619.25 189.25q-6.75 0-12.5-3.5t-9.188-9.375q-3.375-5.937-3.374-12.937l.25-64q0-.5.5-.5h14.374q.5 0 .5.5v64q0 4.312 2.75 7.374 2.75 3 6.688 3 4.125 0 6.875-3 2.75-3.062 2.75-7.374v-64q0-.5.5-.5h14.375q.5 0 .5.5l.25 64q0 7.062-3.375 13-3.437 5.874-9.125 9.374-5.688 3.438-12.75 3.438M696.438 188h-41.376q-.5 0-.5-.625l.126-87.812q0-.626.624-.626h14.25q.626 0 .626.626l-.126 72.687h26.376q.624 0 .624.625v14.5q0 .625-.624.625M747.312 188h-41.374q-.5 0-.5-.625l.124-87.937q0-.5.5-.5h41.126q.5 0 .5.624v14.313q0 .5-.5.5h-26.25v20h26.25q.5 0 .5.5l.124 14.5q0 .5-.5.5h-26.374v22.375h26.374q.5 0 .5.625V187.5q0 .5-.5.5M774.188 188h-14.5q-.5 0-.5-.625l.25-87.937q0-.5.5-.5h25.874q6.939 0 12.75 3.374 5.814 3.375 9.25 9.063 3.5 5.688 3.5 12.875 0 4.687-1.437 8.5t-3.375 6.438q-1.875 2.625-3.438 3.874Q810 150.75 810 161.125l.125 26.25q0 .625-.625.625H795q-.5 0-.5-.375v-26.5q0-4.625-3.25-8t-8-3.375h-8.438l-.124 37.625q0 .625-.5.625m11.624-73.75h-11v20.125h11q3.939 0 7-2.937 3.126-2.939 3.126-7.188 0-4.062-3-7-3-3-7.126-3"/>
  <path stroke="#fff" stroke-width="12" d="M328.812 189.25q-6.812 0-12.562-3.5-5.687-3.5-9.125-9.312-3.375-5.875-3.375-12.876v-5.874q0-.688.625-.688h14.375q.5 0 .5.688v5.874q0 4.188 2.812 7.25 2.814 3 6.75 3 4 0 6.813-3.062 2.813-3.125 2.813-7.188 0-4.687-6.126-8.187a48 48 0 0 0-2.624-1.5 103 103 0 0 0-3.75-2.125q-2.189-1.187-4.25-2.312a223 223 0 0 0-4-2.25q-7-4.125-10.438-10.313-3.375-6.25-3.375-14 0-7.125 3.5-12.875 3.5-5.688 9.125-9 5.688-3.375 12.312-3.375 6.813 0 12.5 3.375 5.688 3.438 9.063 9.125 3.438 5.688 3.437 12.75v10.5q0 .5-.5.5h-14.374q-.5 0-.5-.5l-.126-10.5q0-4.5-2.812-7.313-2.812-2.811-6.688-2.812-3.936 0-6.75 3-2.812 3-2.812 7.125 0 4.188 1.75 7 1.813 2.813 6.562 5.375.501.25 2.313 1.25t4 2.25q2.25 1.188 4.063 2.188 1.812.937 2.187 1.124 6.375 3.564 10.063 8.75 3.75 5.189 3.75 12.75 0 7.313-3.376 13.126-3.437 5.811-9.124 9.187t-12.626 3.375Z" mask="url(#a)"/>
  <path stroke="#fff" stroke-width="12" d="M386.375 189.25q-6.937 0-12.687-3.5-5.688-3.5-9.063-9.375-3.312-5.937-3.313-13.187l.126-39.938q0-7.125 3.25-12.875 3.249-5.812 8.937-9.313 5.75-3.561 12.75-3.562 7.125 0 12.687 3.438 5.626 3.437 8.938 9.312 3.375 5.812 3.375 13v5.875q0 .5-.5.5H396.5q-.5 0-.5-.5v-5.875q0-4.25-2.75-7.312t-6.875-3.063q-4.563 0-7 3.125t-2.437 7.25v39.938q0 4.686 2.75 7.687 2.75 2.937 6.687 2.937 4.125 0 6.875-3.25 2.75-3.312 2.75-7.374v-5.938q0-.5.5-.5H411q.5 0 .5.5v5.938q0 7.187-3.375 13.124-3.438 5.875-9.063 9.438-5.625 3.5-12.687 3.5Z" mask="url(#a)"/>
  <path stroke="#fff" stroke-width="12" d="M435.812 188h-14.5q-.5 0-.5-.625l.126-87.937q0-.5.624-.5h14.25q.626 0 .626.5l-.126 34.812H455.5V99.438q0-.5.5-.5h14.25q.625 0 .625.5l.25 87.937q0 .625-.625.625h-14.375q-.625 0-.625-.625V149.75h-19.188v37.625q0 .625-.5.625Z" mask="url(#a)"/>
  <path stroke="#fff" stroke-width="12" d="M523.438 188h-41.376q-.5 0-.5-.625l.126-87.937q0-.5.5-.5h41.124q.5 0 .5.624v14.313q0 .5-.5.5h-26.25v20h26.25q.5 0 .5.5l.126 14.5q0 .5-.5.5h-26.376v22.375h26.376q.5 0 .5.625V187.5q0 .5-.5.5Z" mask="url(#a)"/>
  <path stroke="#fff" stroke-width="12" d="m558.875 187.875-22.937.125q-.626 0-.626-.625l.25-87.937q0-.5.5-.5L560 98.812q7.125-.186 12.875 3.25 5.812 3.438 9.25 9.313 3.5 5.813 3.5 12.875V161q0 7.375-3.563 13.5-3.624 6.063-9.624 9.688-6 3.562-13.563 3.687Zm1.125-73.75-8.938.125-.124 58h7.937q4.75 0 8-3.312 3.25-3.313 3.25-7.938v-36.875q0-4.063-3-7.063-3-3.062-7.125-2.937Z" mask="url(#a)"/>
  <path stroke="#fff" stroke-width="12" d="M619.25 189.25q-6.75 0-12.5-3.5t-9.188-9.375q-3.375-5.937-3.374-12.937l.25-64q0-.5.5-.5h14.374q.5 0 .5.5v64q0 4.312 2.75 7.374 2.75 3 6.688 3 4.125 0 6.875-3 2.75-3.062 2.75-7.374v-64q0-.5.5-.5h14.375q.5 0 .5.5l.25 64q0 7.062-3.375 13-3.437 5.874-9.125 9.374-5.688 3.438-12.75 3.438Z" mask="url(#a)"/>
  <path stroke="#fff" stroke-width="12" d="M696.438 188h-41.376q-.5 0-.5-.625l.126-87.812q0-.626.624-.626h14.25q.626 0 .626.626l-.126 72.687h26.376q.624 0 .624.625v14.5q0 .625-.624.625Z" mask="url(#a)"/>
  <path stroke="#fff" stroke-width="12" d="M747.312 188h-41.374q-.5 0-.5-.625l.124-87.937q0-.5.5-.5h41.126q.5 0 .5.624v14.313q0 .5-.5.5h-26.25v20h26.25q.5 0 .5.5l.124 14.5q0 .5-.5.5h-26.374v22.375h26.374q.5 0 .5.625V187.5q0 .5-.5.5Z" mask="url(#a)"/>
  <path stroke="#fff" stroke-width="12" d="M774.188 188h-14.5q-.5 0-.5-.625l.25-87.937q0-.5.5-.5h25.874q6.939 0 12.75 3.374 5.814 3.375 9.25 9.063 3.5 5.688 3.5 12.875 0 4.687-1.437 8.5t-3.375 6.438q-1.875 2.625-3.438 3.874Q810 150.75 810 161.125l.125 26.25q0 .625-.625.625H795q-.5 0-.5-.375v-26.5q0-4.625-3.25-8t-8-3.375h-8.438l-.124 37.625q0 .625-.5.625Zm11.624-73.75h-11v20.125h11q3.939 0 7-2.937 3.126-2.939 3.126-7.188 0-4.062-3-7-3-3-7.126-3Z" mask="url(#a)"/>
</svg>
